# xmcd CD database file
#
# Track frame offsets:
#	150
#	18332
#	37990
#
# Disc length: 818 seconds
#
# Revision: 0
# Processed by: cddbd v1.5.1PL0 Copyright (c) Steve Scherf et al.
# Submitted via: CDex 1.51
#
DISCID=17033003
DTITLE=RAMJET PULLEY - Hello...good bye
DYEAR=2000
DGENRE=JPop
TTITLE0=Hello...good bye
TTITLE1=time files
TTITLE2=destiny
EXTD=YEAR: 2000
EXTT0=
EXTT1=
EXTT2=
PLAYORDER=
